<?xml version="1.0" encoding="UTF-8"?>
<svg version="1.1" xmlns="http://www.w3.org/2000/svg" width="500" height="500">
<path d="M0 0 C3.4109195 1.91969468 6.92717829 3.55262128 10.4765625 5.203125 C22.19110227 11.02722801 32.37711429 19.26890552 41.37109375 28.71484375 C43.40134425 30.81094022 45.49787882 32.69754048 47.7265625 34.578125 C51.08889638 37.46108999 53.98103286 40.5631507 56.8359375 43.9453125 C57.92180645 45.22544241 59.03431841 46.48375633 60.1796875 47.7109375 C69.7467577 58.03800861 76.60596359 70.26425964 82.56689453 82.92480469 C83.53098576 84.93627377 84.54152285 86.91735604 85.56640625 88.8984375 C107.18458219 131.46229287 108.47534402 182.96849868 94.52148438 227.97460938 C92.02967799 235.52929076 88.93298644 242.76550809 85.5390625 249.953125 C85.05783936 250.99170654 85.05783936 250.99170654 84.56689453 252.05126953 C70.51767782 282.18323611 47.68693027 309.89921731 19.5390625 327.953125 C18.67547119 328.51990967 18.67547119 328.51990967 17.79443359 329.09814453 C12.08503434 332.83139776 6.33196232 336.29854105 0.01171875 338.90234375 C-2.54236875 339.98773006 -5.02253422 341.19618663 -7.5144043 342.41625977 C-19.94917103 348.43464175 -32.85123966 352.50114828 -46.2734375 355.703125 C-47.076604 355.90180176 -47.87977051 356.10047852 -48.70727539 356.30517578 C-64.99533469 359.98358221 -81.92422043 360.25193208 -98.54589844 360.19604492 C-100.44882777 360.19712183 -102.35175677 360.19906654 -104.25468445 360.20179749 C-109.34635436 360.20657718 -114.43793442 360.1990826 -119.52959347 360.18884444 C-124.87952995 360.17997099 -130.22946439 360.18182302 -135.57940674 360.1822052 C-144.53586305 360.18127411 -153.49228509 360.17265708 -162.44873047 360.15893555 C-172.81072458 360.14311967 -183.1726815 360.13794103 -193.5346868 360.1386711 C-204.59079999 360.13934486 -215.64689883 360.13242459 -226.7030077 360.1232245 C-229.88676063 360.1210911 -233.07051125 360.1203831 -236.25426483 360.11998558 C-241.23502792 360.11898534 -246.21575951 360.11291513 -251.19651222 360.10281944 C-253.02797312 360.09988712 -254.85943765 360.09867054 -256.6909008 360.09924698 C-259.17895733 360.09973401 -261.66692417 360.09411893 -264.15496826 360.08683777 C-264.88868393 360.08838637 -265.62239959 360.08993497 -266.37834907 360.0915305 C-271.34675625 360.06730625 -271.34675625 360.06730625 -272.4609375 358.953125 C-272.56019523 356.99487802 -272.58893164 355.03302603 -272.59033203 353.07226562 C-272.59348419 351.81426147 -272.59663635 350.55625732 -272.59988403 349.26013184 C-272.59809425 347.87654587 -272.5960433 346.49296022 -272.59375 345.109375 C-272.59442309 343.70072411 -272.59539315 342.29207334 -272.59664917 340.88342285 C-272.59812592 337.92764177 -272.59597233 334.97189086 -272.59130859 332.01611328 C-272.58561131 328.21937916 -272.58889043 324.42271572 -272.59488106 320.62598419 C-272.59848729 317.71616072 -272.5973478 314.80635412 -272.59475327 311.89653015 C-272.59408417 310.496231 -272.59491182 309.09593033 -272.59723282 307.69563293 C-272.59976033 305.74175036 -272.59522783 303.78786245 -272.59033203 301.83398438 C-272.58913864 300.16305725 -272.58913864 300.16305725 -272.58792114 298.45837402 C-272.4609375 295.953125 -272.4609375 295.953125 -271.4609375 294.953125 C-268.94232776 294.84963092 -266.45081585 294.81153686 -263.9315033 294.81509399 C-263.13339456 294.81227271 -262.33528582 294.80945143 -261.51299196 294.80654466 C-258.81716406 294.7981589 -256.12137702 294.79685696 -253.42553711 294.79541016 C-251.5006346 294.79074441 -249.57573319 294.78560124 -247.65083313 294.78001404 C-243.4923761 294.76870729 -239.33392635 294.76028517 -235.17545891 294.75389481 C-228.58858948 294.74322576 -222.00177164 294.72297958 -215.41493225 294.70077515 C-196.67923369 294.63882787 -177.94353677 294.58496594 -159.20776367 294.55175781 C-148.86986258 294.5333537 -138.53204663 294.50433709 -128.1942082 294.4637531 C-122.72639922 294.44276348 -117.25869724 294.42723746 -111.79084587 294.42494583 C-106.6337516 294.42278229 -101.4768793 294.40674079 -96.31985283 294.38055611 C-94.43828052 294.37342354 -92.55668113 294.37123237 -90.67509842 294.37465858 C-59.0087973 294.42305974 -30.87337198 284.22160002 -6.4609375 263.953125 C-5.59082031 263.27378906 -4.72070312 262.59445312 -3.82421875 261.89453125 C-0.95131231 259.53447423 1.19038996 256.83024887 3.5390625 253.953125 C4.33054687 253.16808594 5.12203125 252.38304687 5.9375 251.57421875 C26.41678998 230.94118034 37.69681579 199.63886687 37.8515625 170.828125 C37.43673264 135.93339105 23.80660474 104.86829652 -0.2734375 79.828125 C-25.77682244 55.02882124 -56.93968768 44.45538617 -92.04296875 44.8671875 C-127.2990537 45.48957694 -156.51677845 60.93708962 -180.83984375 86.0234375 C-201.6244302 108.1148555 -211.64988426 136.14144801 -211.64624023 166.12817383 C-211.64841498 168.11999633 -211.66689582 170.11177926 -211.68554688 172.10351562 C-211.7033848 184.1441122 -210.9745071 196.25198801 -206.9609375 207.703125 C-206.70812012 208.43990479 -206.45530273 209.17668457 -206.19482422 209.93579102 C-200.21870592 226.51768558 -190.98246515 241.35811579 -178.9296875 254.17578125 C-177.4609375 255.953125 -177.4609375 255.953125 -177.4609375 257.953125 C-203.2009375 257.953125 -228.9409375 257.953125 -255.4609375 257.953125 C-275.01857847 218.83784307 -284.07844657 174.35497451 -274.4609375 130.953125 C-274.29464844 130.18468262 -274.12835938 129.41624023 -273.95703125 128.62451172 C-269.76811727 109.85584992 -262.71962284 91.79186718 -253.4609375 74.953125 C-252.94128418 74.00663086 -252.94128418 74.00663086 -252.41113281 73.04101562 C-248.30279747 65.66630936 -243.76245476 58.74947001 -238.5859375 52.078125 C-238.12147217 51.47661621 -237.65700684 50.87510742 -237.1784668 50.25537109 C-235.00277474 47.53406466 -233.83356344 46.07733365 -230.4609375 44.953125 C-229.76110078 43.63689903 -229.09854272 42.30059737 -228.4609375 40.953125 C-226.88867187 39.12207031 -226.88867187 39.12207031 -225.0546875 37.28125 C-224.39339844 36.61738281 -223.73210937 35.95351562 -223.05078125 35.26953125 C-222.36113281 34.58761719 -221.67148438 33.90570313 -220.9609375 33.203125 C-220.27128906 32.50574219 -219.58164063 31.80835938 -218.87109375 31.08984375 C-218.20980469 30.43113281 -217.54851562 29.77242187 -216.8671875 29.09375 C-216.26197266 28.49079102 -215.65675781 27.88783203 -215.03320312 27.26660156 C-213.4609375 25.953125 -213.4609375 25.953125 -211.4609375 25.953125 C-211.23921875 25.37949219 -211.0175 24.80585937 -210.7890625 24.21484375 C-198.67160599 3.57952811 -157.32309781 -9.70282596 -136.0234375 -15.359375 C-90.93523263 -26.65199224 -40.9676907 -23.07922125 0 0 Z " fill="#025289" transform="translate(336.4609375,80.046875)"/>
<path d="M0 0 C0.33 0 0.66 0 1 0 C0.9278125 1.02867187 0.855625 2.05734375 0.78125 3.1171875 C-0.03223947 16.26184559 -0.11246295 29.39773819 -0.125 42.5625 C-0.12749756 43.47860046 -0.12999512 44.39470093 -0.13256836 45.33856201 C-0.15474883 55.27119909 -0.11148038 65.11440744 1 75 C0.67 75 0.34 75 0 75 C-0.31932434 73.39717783 -0.62994514 71.7926221 -0.9375 70.1875 C-1.11152344 69.29417969 -1.28554688 68.40085937 -1.46484375 67.48046875 C-3.01829311 57.37737842 -3.23488126 47.26633926 -3.25 37.0625 C-3.25350464 35.98006516 -3.25350464 35.98006516 -3.25708008 34.87576294 C-3.27151984 23.02711539 -2.37496611 11.6345066 0 0 Z " fill="#6B96B5" transform="translate(62,211)"/>
<path d="M0 0 C4.89931879 3.41137753 7.89890905 7.66227311 11.25 12.5 C11.79140625 13.25925781 12.3328125 14.01851562 12.890625 14.80078125 C17.21743515 20.97730274 17.21743515 20.97730274 18 25 C15.69 24.01 13.38 23.02 11 22 C11.33 22.66 11.66 23.32 12 24 C10.68 23.67 9.36 23.34 8 23 C7.97421875 22.26394531 7.9484375 21.52789062 7.921875 20.76953125 C7.58073275 14.90033382 7.31894313 11.31894313 3 7 C1.69065239 4.6569569 0.85352158 2.56056474 0 0 Z " fill="#065086" transform="translate(394,126)"/>
<path d="M0 0 C1.7074998 1.28062485 3.37373596 2.61767557 5 4 C5 4.66 5 5.32 5 6 C-20.74 6 -46.48 6 -73 6 C-73 5.67 -73 5.34 -73 5 C-48.91 5 -24.82 5 0 5 C0 3.35 0 1.7 0 0 Z " fill="#306990" transform="translate(154,332)"/>
<path d="M0 0 C1.65 0.66 3.3 1.32 5 2 C-1.97474397 9.69626921 -11.59837832 16.60276403 -21 21 C-21.66 20.67 -22.32 20.34 -23 20 C-22.505 18.515 -22.505 18.515 -22 17 C-20.68 17 -19.36 17 -18 17 C-18 16.01 -18 15.02 -18 14 C-17.43410156 13.81824219 -16.86820312 13.63648438 -16.28515625 13.44921875 C-15.18494141 13.07216797 -15.18494141 13.07216797 -14.0625 12.6875 C-13.33160156 12.44386719 -12.60070312 12.20023437 -11.84765625 11.94921875 C-9.64067976 11.08759559 -9.64067976 11.08759559 -9 8 C-7.68 8 -6.36 8 -5 8 C-5 7.34 -5 6.68 -5 6 C-3.35 5.34 -1.7 4.68 0 4 C-0.33 3.01 -0.66 2.02 -1 1 C-0.67 0.67 -0.34 0.34 0 0 Z " fill="#467DA0" transform="translate(364,395)"/>
<path d="M0 0 C0.66 0.33 1.32 0.66 2 1 C0.0545758 6.22192813 -1.85365817 9.14982544 -6 13 C-6.90871853 14.09358677 -7.80467714 15.19790358 -8.6875 16.3125 C-9.8321875 17.6428125 -9.8321875 17.6428125 -11 19 C-11.66 19 -12.32 19 -13 19 C-13.28875 19.804375 -13.5775 20.60875 -13.875 21.4375 C-15 24 -15 24 -17 25 C-15.45262907 20.42704346 -13.00531581 16.91780322 -10.1875 13.0625 C-9.76146484 12.46759766 -9.33542969 11.87269531 -8.89648438 11.25976562 C-6.08353899 7.36590023 -3.11172048 3.65920451 0 0 Z " fill="#6F9AB4" transform="translate(104,125)"/>
<path d="M0 0 C2.96404505 2.80804268 5.44499019 5.18315774 7 9 C8.32 9 9.64 9 11 9 C11 9.66 11 10.32 11 11 C12.32 10.67 13.64 10.34 15 10 C15.66 11.65 16.32 13.3 17 15 C11.76189941 13.03571228 6.86006726 10.45641802 1.8828125 7.921875 C-1.69449651 6.11297157 -5.24065649 4.40975382 -9 3 C-5.37673261 1.7922442 -4.35853631 2.45688872 -1 4 C-1.33 3.01 -1.66 2.02 -2 1 C-1.34 0.67 -0.68 0.34 0 0 Z " fill="#276693" transform="translate(299,128)"/>
<path d="M0 0 C-13.85886521 6.04750482 -31.26736757 2.85318244 -46 2 C-46 1.67 -46 1.34 -46 1 C-44.46460571 0.96241577 -44.46460571 0.96241577 -42.89819336 0.92407227 C-39.07565258 0.82941206 -35.2532689 0.72933805 -31.4309082 0.62768555 C-29.78120619 0.58455714 -28.13146585 0.54286799 -26.48168945 0.50268555 C-24.10095711 0.44444353 -21.72041373 0.38090903 -19.33984375 0.31640625 C-18.61039047 0.29969376 -17.88093719 0.28298126 -17.12937927 0.26576233 C-0.5718888 -0.20587997 -0.5718888 -0.20587997 0 0 Z " fill="#56849F" transform="translate(274,374)"/>
<path d="M0 0 C0.66 0.99 1.32 1.98 2 3 C0.68 3.33 -0.64 3.66 -2 4 C-2 4.66 -2 5.32 -2 6 C-2.99 6 -3.98 6 -5 6 C-5.33 6.99 -5.66 7.98 -6 9 C-9.8570146 12.67638306 -13.62972357 14.60705294 -19 15 C-16.31265075 12.09877867 -13.23267048 9.85117712 -10.0625 7.5 C-9.02222656 6.7265625 -7.98195313 5.953125 -6.91015625 5.15625 C-5.94980469 4.4446875 -4.98945313 3.733125 -4 3 C-2.66587844 2.00105184 -1.33217682 1.00154016 0 0 Z " fill="#41799C" transform="translate(333,342)"/>
<path d="M0 0 C1.125 3.75 1.125 3.75 0 6 C0.99 6 1.98 6 3 6 C3 6.99 3 7.98 3 9 C1.35 9.33 -0.3 9.66 -2 10 C-2 12.31 -2 14.62 -2 17 C-2.66 17 -3.32 17 -4 17 C-4 19.64 -4 22.28 -4 25 C-4.66 25 -5.32 25 -6 25 C-5.52897524 16.20753786 -2.75783166 8.29384797 0 0 Z " fill="#5C8AAC" transform="translate(69,186)"/>
<path d="M0 0 C7.59 0 15.18 0 23 0 C23 0.66 23 1.32 23 2 C22.06148193 2.03758423 22.06148193 2.03758423 21.10400391 2.07592773 C18.27745381 2.19175273 15.45124831 2.31453985 12.625 2.4375 C11.14773437 2.49647461 11.14773437 2.49647461 9.640625 2.55664062 C8.22910156 2.61948242 8.22910156 2.61948242 6.7890625 2.68359375 C5.91975098 2.72025146 5.05043945 2.75690918 4.15478516 2.79467773 C1.9516738 2.87401544 1.9516738 2.87401544 0 4 C0 2.68 0 1.36 0 0 Z " fill="#1E557E" transform="translate(65,375)"/>
<path d="M0 0 C1.7074998 1.28062485 3.37373596 2.61767557 5 4 C5 4.66 5 5.32 5 6 C-4.9 6 -14.8 6 -25 6 C-25 5.67 -25 5.34 -25 5 C-16.75 5 -8.5 5 0 5 C0 3.35 0 1.7 0 0 Z " fill="#2C688D" transform="translate(154,332)"/>
<path d="M0 0 C-3.09522958 1.03174319 -6.17234462 2.04877678 -9.3125 2.9375 C-10.199375 3.288125 -11.08625 3.63875 -12 4 C-12.33 4.99 -12.66 5.98 -13 7 C-13.9075 6.690625 -14.815 6.38125 -15.75 6.0625 C-18.16894068 5.27169247 -20.53200079 4.59553894 -23 4 C-19.92090233 3.13003414 -16.83621369 2.28184148 -13.75 1.4375 C-12.87730469 1.19064453 -12.00460938 0.94378906 -11.10546875 0.68945312 C-9.83896484 0.34624023 -9.83896484 0.34624023 -8.546875 -0.00390625 C-7.77182617 -0.21861572 -6.99677734 -0.4333252 -6.19824219 -0.65454102 C-3.80975982 -1.0298967 -2.279036 -0.74681558 0 0 Z " fill="#3F76A0" transform="translate(212,64)"/>
<path d="M0 0 C1.65 0 3.3 0 5 0 C1.55975781 2.82613703 -1.95122977 5.39131533 -5.6875 7.8125 C-6.64011719 8.43769531 -7.59273438 9.06289063 -8.57421875 9.70703125 C-9.37472656 10.13371094 -10.17523438 10.56039063 -11 11 C-11.66 10.67 -12.32 10.34 -13 10 C-12.67 9.01 -12.34 8.02 -12 7 C-10.68 7 -9.36 7 -8 7 C-8 6.01 -8 5.02 -8 4 C-5.36 3.01 -2.72 2.02 0 1 C0 0.67 0 0.34 0 0 Z " fill="#6C99B4" transform="translate(354,405)"/>
<path d="M0 0 C0 0.33 0 0.66 0 1 C-1.28970703 1.05607422 -1.28970703 1.05607422 -2.60546875 1.11328125 C-10.07421821 1.52866426 -17.01713135 2.49199558 -24.2578125 4.37890625 C-27 5 -27 5 -31 5 C-31 4.34 -31 3.68 -31 3 C-29.02 3 -27.04 3 -25 3 C-25 2.34 -25 1.68 -25 1 C-16.64399592 -0.10102642 -8.41192037 -0.10094304 0 0 Z " fill="#417296" transform="translate(240,124)"/>
<path d="M0 0 C-3.0817499 2.05449993 -5.3095757 2.74475809 -8.875 3.625 C-9.90367187 3.88539063 -10.93234375 4.14578125 -11.9921875 4.4140625 C-14.75879061 4.95301116 -17.19284196 5.11394368 -20 5 C-19.67 4.01 -19.34 3.02 -19 2 C-12.6221448 0.82706111 -6.49678438 -0.29530838 0 0 Z " fill="#397198" transform="translate(304,431)"/>
<path d="M0 0 C0.99 0.33 1.98 0.66 3 1 C1.65070536 4.83663072 -0.07751025 7.65172569 -2.625 10.8125 C-3.25664062 11.60269531 -3.88828125 12.39289063 -4.5390625 13.20703125 C-5.02117187 13.79871094 -5.50328125 14.39039063 -6 15 C-6.33 13.68 -6.66 12.36 -7 11 C-6.34 11 -5.68 11 -5 11 C-4.67 9.68 -4.34 8.36 -4 7 C-3.34 7 -2.68 7 -2 7 C-2 5.02 -2 3.04 -2 1 C-1.34 0.67 -0.68 0.34 0 0 Z " fill="#4E83A7" transform="translate(403,356)"/>
<path d="M0 0 C4.66666667 4 9.33333333 8 14 12 C12.12890625 12.609375 12.12890625 12.609375 10 13 C7.9375 11.25 7.9375 11.25 6 9 C5.4225 8.46375 4.845 7.9275 4.25 7.375 C3 6 3 6 3 4 C1.68 4 0.36 4 -1 4 C-0.67 2.68 -0.34 1.36 0 0 Z " fill="#326A91" transform="translate(371,103)"/>
<path d="M0 0 C0.33 0 0.66 0 1 0 C1.2226746 1.43534841 1.42761906 2.87345525 1.625 4.3125 C1.74101563 5.11300781 1.85703125 5.91351563 1.9765625 6.73828125 C2 9 2 9 0 12 C-0.99 12.33 -1.98 12.66 -3 13 C-3.66 13.66 -4.32 14.32 -5 15 C-4.37321829 11.33827525 -3.35548154 8.1181005 -1.9375 4.6875 C-1.39416016 3.36298828 -1.39416016 3.36298828 -0.83984375 2.01171875 C-0.56269531 1.34785156 -0.28554687 0.68398437 0 0 Z " fill="#39759C" transform="translate(75,171)"/>
<path d="M0 0 C0.33 0.66 0.66 1.32 1 2 C-0.0828125 2.5878125 -0.0828125 2.5878125 -1.1875 3.1875 C-4.09985887 4.9159536 -4.09985887 4.9159536 -6.4375 7.5 C-9.91046792 10.88826139 -13.07607097 13 -18 13 C-12.186102 8.35437938 -6.25322296 4.03576801 0 0 Z " fill="#8AB1C9" transform="translate(148,87)"/>
<path d="M0 0 C0 3.26229641 -0.21770324 4.32655486 -2 7 C-3.99371825 8.34270821 -5.9934562 9.67653494 -8 11 C-8.33 11.99 -8.66 12.98 -9 14 C-10.32 13.67 -11.64 13.34 -13 13 C-8.71 8.71 -4.42 4.42 0 0 Z " fill="#3A6F97" transform="translate(119,110)"/>
<path d="M0 0 C1.32 0.33 2.64 0.66 4 1 C3.06725891 2.12894876 2.12859878 3.25300876 1.1875 4.375 C0.66542969 5.00148438 0.14335937 5.62796875 -0.39453125 6.2734375 C-2 8 -2 8 -5 10 C-5.36625971 5.48279689 -5.36625971 5.48279689 -3.625 3.1875 C-2 2 -2 2 0 2 C0 1.34 0 0.68 0 0 Z " fill="#2C668F" transform="translate(379,383)"/>
<path d="M0 0 C3.88185804 2.85530714 6.54737608 5.8132134 9.3125 9.75 C10.00988281 10.73484375 10.70726562 11.7196875 11.42578125 12.734375 C11.94527344 13.48203125 12.46476562 14.2296875 13 15 C12.67 15.66 12.34 16.32 12 17 C6.66572575 11.81390003 2.3693826 7.10814779 0 0 Z " fill="#77A3BD" transform="translate(394,126)"/>
<path d="M0 0 C0 0.66 0 1.32 0 2 C-0.99 2 -1.98 2 -3 2 C-3 2.66 -3 3.32 -3 4 C-3.66 4 -4.32 4 -5 4 C-5.33 4.99 -5.66 5.98 -6 7 C-7.36125 6.9690625 -7.36125 6.9690625 -8.75 6.9375 C-11.42672588 6.9889755 -13.46988052 7.2215017 -16 8 C-13.52093943 5.13437405 -10.87838941 3.8382206 -7.4375 2.3125 C-5.98150391 1.65701172 -5.98150391 1.65701172 -4.49609375 0.98828125 C-2 0 -2 0 0 0 Z " fill="#3F7499" transform="translate(166,79)"/>
<path d="M0 0 C0.66 0 1.32 0 2 0 C2.67119549 1.4562545 3.33681807 2.91507867 4 4.375 C4.556875 5.59316406 4.556875 5.59316406 5.125 6.8359375 C6 9 6 9 6 11 C5.34 11 4.68 11 4 11 C4 10.01 4 9.02 4 8 C3.01 9.32 2.02 10.64 1 12 C0.67 10.35 0.34 8.7 0 7 C0.66 7 1.32 7 2 7 C2 6.34 2 5.68 2 5 C1.34 5 0.68 5 0 5 C0 3.35 0 1.7 0 0 Z " fill="#2E6D98" transform="translate(129,292)"/>
<path d="M0 0 C0 0.66 0 1.32 0 2 C-4.35332736 2.84023188 -8.44442519 3.10770995 -12.875 3.0625 C-14.02742187 3.05347656 -15.17984375 3.04445312 -16.3671875 3.03515625 C-17.23601562 3.02355469 -18.10484375 3.01195312 -19 3 C-19 2.67 -19 2.34 -19 2 C-12.6221448 0.82706111 -6.49678438 -0.29530838 0 0 Z " fill="#5486AA" transform="translate(231,60)"/>
<path d="M0 0 C1.90401138 1.90401138 2.93520439 3.33425686 3.19921875 6.046875 C3.1886578 8.03233273 3.09915043 10.0169914 3 12 C3.66 12 4.32 12 5 12 C4.67 14.97 4.34 17.94 4 21 C3.67 21 3.34 21 3 21 C2.49265716 18.6263603 1.99397614 16.25142575 1.5 13.875 C1.35691406 13.20984375 1.21382813 12.5446875 1.06640625 11.859375 C0.2387717 7.83943578 -0.15330658 4.10095101 0 0 Z " fill="#22638C" transform="translate(370,211)"/>
<path d="M0 0 C4.20240011 3.71750779 6.99782679 8.31660979 10 13 C8.68 13 7.36 13 6 13 C5.566875 12.071875 5.13375 11.14375 4.6875 10.1875 C3.25030123 7.07187582 3.25030123 7.07187582 1.3125 5.375 C0 4 0 4 0 0 Z " fill="#4C7EA3" transform="translate(144,319)"/>
<path d="M0 0 C0.66 0.33 1.32 0.66 2 1 C-0.46153846 7.64615385 -0.46153846 7.64615385 -3.1875 9.4375 C-4.0846875 9.7159375 -4.0846875 9.7159375 -5 10 C-5 4.69520066 -3.4637943 3.81017373 0 0 Z " fill="#5E8EAE" transform="translate(104,125)"/>
<path d="M0 0 C0.68707555 2.49064888 1 4.37886292 1 7 C0.195625 7.2475 -0.60875 7.495 -1.4375 7.75 C-4.171081 8.72238859 -4.171081 8.72238859 -4.8125 11.125 C-4.874375 11.74375 -4.93625 12.3625 -5 13 C-5.66 13 -6.32 13 -7 13 C-5.35821735 8.22390502 -2.73453298 4.20617096 0 0 Z " fill="#5A8BA9" transform="translate(358,310)"/>
<path d="M0 0 C0 0.66 0 1.32 0 2 C-1.32 2 -2.64 2 -4 2 C-3.67 2.99 -3.34 3.98 -3 5 C-6.96 5 -10.92 5 -15 5 C-12.18178397 3.12118931 -10.14357281 2.30990783 -6.9375 1.375 C-6.05964844 1.11460937 -5.18179687 0.85421875 -4.27734375 0.5859375 C-2 0 -2 0 0 0 Z " fill="#2A658C" transform="translate(294,367)"/>
<path d="M0 0 C0.66 0 1.32 0 2 0 C2.33 3.96 2.66 7.92 3 12 C2.67 11.34 2.34 10.68 2 10 C1.34 10 0.68 10 0 10 C0 6.7 0 3.4 0 0 Z " fill="#3F769B" transform="translate(435,215)"/>
<path d="M0 0 C1.32 0.33 2.64 0.66 4 1 C2.27239967 4.7020007 0.92824652 7.07175348 -2 10 C-1.34 6.7 -0.68 3.4 0 0 Z " fill="#205E88" transform="translate(371,278)"/>
<path d="M0 0 C1.125 3.75 1.125 3.75 0 6 C0.99 6 1.98 6 3 6 C3 6.99 3 7.98 3 9 C1.35 9.33 -0.3 9.66 -2 10 C-1.54177532 6.53058454 -1.10868317 3.32604951 0 0 Z " fill="#33709F" transform="translate(69,186)"/>
<path d="M0 0 C2.15377564 2.62198774 3.40072174 4.64404172 4 8 C2.02 7.01 0.04 6.02 -2 5 C-2 3.68 -2 2.36 -2 1 C-1.34 0.67 -0.68 0.34 0 0 Z " fill="#1D5F91" transform="translate(421,169)"/>
<path d="M0 0 C0.66 0.99 1.32 1.98 2 3 C0.02 5.97 -1.96 8.94 -4 12 C-5 10 -5 10 -4.0625 6.875 C-3.711875 5.92625 -3.36125 4.9775 -3 4 C-2.01 4 -1.02 4 0 4 C0 2.68 0 1.36 0 0 Z " fill="#6E9CB8" transform="translate(411,345)"/>
<path d="M0 0 C2.97 0.495 2.97 0.495 6 1 C6 1.66 6 2.32 6 3 C7.32 2.67 8.64 2.34 10 2 C10.66 3.65 11.32 5.3 12 7 C7.69235185 5.43358249 3.93828536 3.31663844 0 1 C0 0.67 0 0.34 0 0 Z " fill="#5A91B1" transform="translate(304,136)"/>
<path d="M0 0 C1.7074998 1.28062485 3.37373596 2.61767557 5 4 C5 4.66 5 5.32 5 6 C2.69 6 0.38 6 -2 6 C-1.34 5.67 -0.68 5.34 0 5 C0 3.35 0 1.7 0 0 Z " fill="#4C7B9F" transform="translate(154,332)"/>
<path d="M0 0 C0.66 0.33 1.32 0.66 2 1 C1.67 3.64 1.34 6.28 1 9 C-0.32 9 -1.64 9 -3 9 C-2.01 6.03 -1.02 3.06 0 0 Z " fill="#4A80A3" transform="translate(366,293)"/>
<path d="M0 0 C0.66 0 1.32 0 2 0 C4.03684712 4.07369424 4.0257259 6.58937864 3 11 C0.87953208 7.46588679 0.46800711 4.05606165 0 0 Z " fill="#3F7699" transform="translate(65,295)"/>
<path d="M0 0 C1.4391134 0.28359887 2.87625518 0.57721399 4.3125 0.875 C5.11300781 1.03742188 5.91351563 1.19984375 6.73828125 1.3671875 C9 2 9 2 12 4 C10.68 4.33 9.36 4.66 8 5 C8 4.34 8 3.68 8 3 C6.68 3 5.36 3 4 3 C3.67 3.66 3.34 4.32 3 5 C2.87625 4.360625 2.7525 3.72125 2.625 3.0625 C2.315625 2.0415625 2.315625 2.0415625 2 1 C1.34 0.67 0.68 0.34 0 0 Z " fill="#457CA0" transform="translate(300,66)"/>
<path d="M0 0 C0.66 0.99 1.32 1.98 2 3 C0.68 3.33 -0.64 3.66 -2 4 C-2 4.66 -2 5.32 -2 6 C-3.32 5.67 -4.64 5.34 -6 5 C-4.02 3.35 -2.04 1.7 0 0 Z " fill="#4A80A7" transform="translate(333,342)"/>
<path d="M0 0 C6.875 3.75 6.875 3.75 8 6 C5.125 5.8125 5.125 5.8125 2 5 C0.625 2.4375 0.625 2.4375 0 0 Z " fill="#71A1BB" transform="translate(351,88)"/>
<path d="M0 0 C-3 2 -3 2 -6 2 C-6.33 2.99 -6.66 3.98 -7 5 C-8.65 5 -10.3 5 -12 5 C-3.89473684 -1.94736842 -3.89473684 -1.94736842 0 0 Z " fill="#48799E" transform="translate(178,74)"/>
<path d="M0 0 C-0.61538462 6.52307692 -0.61538462 6.52307692 -2.5625 8.9375 C-3.036875 9.288125 -3.51125 9.63875 -4 10 C-4.36814024 3.49618902 -4.36814024 3.49618902 -2.5625 1.0625 C-1 0 -1 0 0 0 Z " fill="#477B9E" transform="translate(417,336)"/>
<path d="M0 0 C2.97 0.495 2.97 0.495 6 1 C5.01 1.495 5.01 1.495 4 2 C4.33 3.65 4.66 5.3 5 7 C3.29115995 5.37660195 1.62553283 3.70680947 0 2 C0 1.34 0 0.68 0 0 Z " fill="#33709F" transform="translate(342,164)"/>
<path d="M0 0 C2 3 2 3 1.625 5.1875 C1.41875 5.785625 1.2125 6.38375 1 7 C-0.32 7.33 -1.64 7.66 -3 8 C-1.125 2.25 -1.125 2.25 0 0 Z " fill="#488AA8" transform="translate(362,302)"/>
<path d="M0 0 C0.66 0.33 1.32 0.66 2 1 C1.01 1.33 0.02 1.66 -1 2 C-1.33 2.99 -1.66 3.98 -2 5 C-4.97 4.505 -4.97 4.505 -8 4 C-5.31143836 2.20762558 -3.0466145 1.01553817 0 0 Z " fill="#5989AB" transform="translate(186,69)"/>
<path d="M0 0 C2.64 0.33 5.28 0.66 8 1 C5.23776722 3.76223278 2.79293383 3.57856291 -1 4 C-0.67 2.68 -0.34 1.36 0 0 Z " fill="#3A7097" transform="translate(305,427)"/>
<path d="M0 0 C0.99 0.33 1.98 0.66 3 1 C0.525 4.465 0.525 4.465 -2 8 C-2.33 6.68 -2.66 5.36 -3 4 C-2.34 4 -1.68 4 -1 4 C-0.67 2.68 -0.34 1.36 0 0 Z " fill="#76A2BA" transform="translate(399,363)"/>
<path d="M0 0 C1.09658936 3.28976808 0.79953138 4.71303767 0 8 C-0.33 7.34 -0.66 6.68 -1 6 C-2.32 6.33 -3.64 6.66 -5 7 C-3.35 4.69 -1.7 2.38 0 0 Z " fill="#4F89B1" transform="translate(348,325)"/>
<path d="M0 0 C4.63868613 5.38686131 4.63868613 5.38686131 5 9 C4.67 9.99 4.34 10.98 4 12 C3.32645501 10.56570999 2.66140299 9.12742943 2 7.6875 C1.62875 6.88699219 1.2575 6.08648437 0.875 5.26171875 C0 3 0 3 0 0 Z " fill="#5687A4" transform="translate(363,196)"/>
<path d="M0 0 C2.79872437 2.52788007 4.45773019 4.20411134 5 8 C2.5 6.8125 2.5 6.8125 0 5 C-0.3125 2.3125 -0.3125 2.3125 0 0 Z " fill="#72A1BE" transform="translate(407,143)"/>
<path d="M0 0 C1.32 0.33 2.64 0.66 4 1 C1.36 2.65 -1.28 4.3 -4 6 C-4.33 5.01 -4.66 4.02 -5 3 C-3.68 3 -2.36 3 -1 3 C-0.67 2.01 -0.34 1.02 0 0 Z " fill="#4C82A1" transform="translate(172,147)"/>
<path d="M0 0 C0.99 0 1.98 0 3 0 C2.67 2.31 2.34 4.62 2 7 C1.34 6.67 0.68 6.34 0 6 C0 4.02 0 2.04 0 0 Z " fill="#376D95" transform="translate(428,304)"/>
<path d="M0 0 C0.99 0 1.98 0 3 0 C2.67 2.64 2.34 5.28 2 8 C1.87625 7.360625 1.7525 6.72125 1.625 6.0625 C1.315625 5.0415625 1.315625 5.0415625 1 4 C0.34 3.67 -0.32 3.34 -1 3 C-0.67 2.01 -0.34 1.02 0 0 Z " fill="#14608B" transform="translate(124,215)"/>
<path d="M0 0 C1.65 0 3.3 0 5 0 C3.69593116 2.01920337 2.36176581 4.01924973 1 6 C0.67 6 0.34 6 0 6 C0 4.02 0 2.04 0 0 Z " fill="#457BA1" transform="translate(145,172)"/>
<path d="M0 0 C1 4 1 4 1 8 C-0.32 8.33 -1.64 8.66 -3 9 C-2.01 6.03 -1.02 3.06 0 0 Z " fill="#3C7095" transform="translate(84,153)"/>
</svg>
